# xmcd
#
# Track frame offsets:
#	150
#	14742
#	25722
#	39370
#	57432
#	73117
#	84922
#	98457
#	115037
#	129655
#
# Disc length: 1990 seconds
#
# Revision: 4
# Processed by: cddbd v1.5.2PL0 Copyright (c) Steve Scherf et al.
# Submitted via: audiograbber 1.83.01
#
DISCID=7807c40a
DTITLE=Chris Cummings - Chris Cummings
DYEAR=1998
DGENRE=Country
TTITLE0=I Waited
TTITLE1='Til I See You Again
TTITLE2=Almost Always
TTITLE3=Somewhere Inside
TTITLE4=Little Sister's Blue Jeans
TTITLE5=The Kind of Heart That Breaks
TTITLE6=What About Me
TTITLE7=Minute and a Half
TTITLE8=Sure Enough
TTITLE9=Never Thought of You That Way
EXTD=
EXTT0=
EXTT1=
EXTT2=
EXTT3=
EXTT4=
EXTT5=
EXTT6=
EXTT7=
EXTT8=
EXTT9=
PLAYORDER=
